<svg width="178" height="178" viewBox="0 0 178 178" fill="none" xmlns="http://www.w3.org/2000/svg" xmlns:xlink="http://www.w3.org/1999/xlink">
<g opacity="0.75">
<path d="M61.188,127.937C59.712,127.937 58.297,127.351 57.254,126.308C56.211,125.265 55.625,123.85 55.625,122.375L55.625,55.625C55.626,54.677 55.868,53.745 56.33,52.918C56.792,52.09 57.458,51.394 58.264,50.896C59.07,50.398 59.99,50.114 60.937,50.071C61.884,50.028 62.826,50.228 63.674,50.652L130.424,84.027C131.347,84.49 132.123,85.2 132.665,86.078C133.207,86.956 133.494,87.968 133.494,89C133.494,90.032 133.207,91.044 132.665,91.922C132.123,92.8 131.347,93.51 130.424,93.973L63.674,127.348C62.902,127.734 62.051,127.936 61.188,127.937ZM66.75,64.625L66.75,113.375L115.5,89L66.75,64.625Z" fill="#FFFFFF"/>
<path d="M89,22.25C102.202,22.25 115.107,26.165 126.084,33.499C137.061,40.834 145.617,51.259 150.669,63.456C155.721,75.653 157.043,89.074 154.467,102.022C151.892,114.971 145.535,126.864 136.199,136.199C126.864,145.535 114.971,151.892 102.022,154.467C89.074,157.043 75.653,155.721 63.456,150.669C51.259,145.617 40.834,137.061 33.499,126.084C26.165,115.107 22.25,102.202 22.25,89C22.25,71.297 29.283,54.319 41.801,41.801C54.319,29.283 71.297,22.25 89,22.25ZM89,11.125C73.598,11.125 58.541,15.692 45.735,24.249C32.929,32.806 22.947,44.969 17.053,59.199C11.159,73.428 9.617,89.086 12.621,104.193C15.626,119.299 23.043,133.175 33.934,144.066C44.825,154.957 58.701,162.374 73.807,165.379C88.914,168.383 104.572,166.841 118.802,160.947C133.031,155.053 145.194,145.072 153.751,132.265C162.308,119.459 166.875,104.402 166.875,89C166.875,68.346 158.67,48.538 144.066,33.934C129.462,19.33 109.654,11.125 89,11.125Z" fill="#FFFFFF"/>
</g>
</svg>
