<svg width="40" height="40" viewBox="0 0 40 40" fill="none" xmlns="http://www.w3.org/2000/svg" xmlns:xlink="http://www.w3.org/1999/xlink">
<path d="M4,20C4,18.895 3.105,18 2,18C0.895,18 0,18.895 0,20L4,20ZM20,2L20,0L19.992,0L20,2ZM6.52,7.48L5.13,6.042C5.122,6.05 5.114,6.058 5.106,6.066L6.52,7.48ZM0.586,10.586C-0.195,11.367 -0.195,12.633 0.586,13.414C1.367,14.195 2.633,14.195 3.414,13.414L0.586,10.586ZM0,20C0,23.956 1.173,27.822 3.371,31.111L6.696,28.889C4.938,26.258 4,23.165 4,20L0,20ZM3.371,31.111C5.568,34.4 8.692,36.964 12.346,38.478L13.877,34.782C10.953,33.571 8.455,31.52 6.696,28.889L3.371,31.111ZM12.346,38.478C16.001,39.991 20.022,40.387 23.902,39.616L23.121,35.693C20.018,36.31 16.801,35.993 13.877,34.782L12.346,38.478ZM23.902,39.616C27.781,38.844 31.345,36.939 34.142,34.142L31.314,31.314C29.076,33.551 26.225,35.075 23.121,35.693L23.902,39.616ZM34.142,34.142C36.939,31.345 38.844,27.781 39.616,23.902L35.693,23.121C35.075,26.225 33.551,29.076 31.314,31.314L34.142,34.142ZM39.616,23.902C40.387,20.022 39.991,16.001 38.478,12.346L34.782,13.877C35.993,16.801 36.31,20.018 35.693,23.121L39.616,23.902ZM38.478,12.346C36.964,8.692 34.4,5.568 31.111,3.371L28.889,6.696C31.52,8.455 33.571,10.953 34.782,13.877L38.478,12.346ZM31.111,3.371C27.822,1.173 23.956,0 20,0L20,4C23.165,4 26.258,4.938 28.889,6.696L31.111,3.371ZM19.992,0C14.444,0.021 9.119,2.186 5.13,6.042L7.91,8.918C11.157,5.779 15.492,4.017 20.008,4L19.992,0ZM5.106,6.066L0.586,10.586L3.414,13.414L7.934,8.894L5.106,6.066Z" fill="#FFFFFF"/>
<path d="M4,2C4,0.895 3.105,0 2,0C0.895,0 0,0.895 0,2L4,2ZM2,12L0,12C0,13.105 0.895,14 2,14L2,12ZM12,14C13.105,14 14,13.105 14,12C14,10.895 13.105,10 12,10L12,14ZM0,2L0,12L4,12L4,2L0,2ZM2,14L12,14L12,10L2,10L2,14Z" fill="#FFFFFF"/>
</svg>
