<svg width="40" height="40" viewBox="0 0 40 40" fill="none" xmlns="http://www.w3.org/2000/svg" xmlns:xlink="http://www.w3.org/1999/xlink">
<path d="M0.44,0.44C0.186,0.694 0.032,1.031 0.005,1.389C-0.022,1.747 0.081,2.103 0.294,2.392L0.44,2.56L8.508,10.63C4.574,13.387 1.766,17.47 0.598,22.13C0.508,22.514 0.572,22.917 0.778,23.254C0.983,23.59 1.312,23.832 1.694,23.928C2.077,24.024 2.481,23.965 2.82,23.765C3.16,23.565 3.407,23.239 3.508,22.858C4.546,18.722 7.102,15.128 10.668,12.79L14.288,16.41C12.842,17.921 12.045,19.938 12.068,22.03C12.091,24.121 12.932,26.12 14.411,27.599C15.89,29.077 17.89,29.918 19.981,29.941C22.072,29.964 24.089,29.166 25.6,27.72L37.438,39.56C37.706,39.828 38.065,39.986 38.444,40C38.823,40.014 39.193,39.884 39.48,39.637C39.767,39.389 39.949,39.042 39.991,38.666C40.033,38.289 39.93,37.91 39.704,37.606L39.558,37.438L27.332,25.21L27.334,25.206L13.434,11.314L13.438,11.31L11.172,9.05L2.56,0.44C2.279,0.159 1.898,0.001 1.5,0.001C1.103,0.001 0.721,0.159 0.44,0.44ZM20,7C18,7 16.06,7.296 14.222,7.85L16.696,10.322C20.975,9.475 25.416,10.304 29.101,12.639C32.786,14.974 35.433,18.635 36.494,22.866C36.598,23.244 36.845,23.566 37.183,23.764C37.521,23.962 37.924,24.02 38.304,23.925C38.684,23.83 39.012,23.59 39.217,23.257C39.423,22.923 39.49,22.522 39.404,22.14C38.32,17.815 35.821,13.976 32.306,11.233C28.79,8.49 24.459,7 20,7ZM20.39,14.02L27.992,21.62C27.894,19.636 27.061,17.759 25.656,16.354C24.251,14.95 22.374,14.118 20.39,14.02Z" fill="#000000"/>
</svg>
