<svg width="34" height="22" viewBox="0 0 34 22" fill="none" xmlns="http://www.w3.org/2000/svg" xmlns:xlink="http://www.w3.org/1999/xlink">
<path d="M31.967,13.442C32.052,13.704 32.237,13.923 32.482,14.05C32.727,14.176 33.013,14.2 33.276,14.117C33.817,13.942 34.126,13.358 33.951,12.808L33.95,12.806C33.876,12.583 29.702,0 17.333,0C4.967,0 0.792,12.583 0.719,12.807L0.718,12.808C0.543,13.358 0.843,13.942 1.393,14.117C1.943,14.292 2.527,13.992 2.702,13.442C2.852,12.975 6.46,2.083 17.335,2.083C28.21,2.083 31.817,12.975 31.967,13.442ZM17.334,21.667C19.323,21.667 21.231,20.876 22.637,19.47C24.044,18.063 24.834,16.156 24.834,14.167C24.834,12.178 24.044,10.27 22.637,8.863C21.231,7.457 19.323,6.667 17.334,6.667C15.345,6.667 13.437,7.457 12.031,8.863C10.624,10.27 9.834,12.178 9.834,14.167C9.834,16.156 10.624,18.063 12.031,19.47C13.437,20.876 15.345,21.667 17.334,21.667Z" fill="#000000"/>
</svg>
